# xmcd
#
# Track frame offsets:
#	150
#	30546
#	54714
#	73307
#	90510
#	107371
#	124710
#	145112
#	157724
#	172532
#	185255
#
# Disc length: 2704 seconds
#
# Revision: 1
# Processed by: cddbd v1.5.2PL0 Copyright (c) Steve Scherf et al.
# Submitted via: audiograbber 1.83.01
#
DISCID=7f0a8e0b
DTITLE=CHUCK PROPHET - DREAMING WAYLON'S DREAMS
DYEAR=2007
DGENRE=Country
TTITLE0=ARE YOU SURE HANK DONE IT THIS WAY
TTITLE1=WAYMORE'S BLUES
TTITLE2=I RECALL A GYPSY WOMAN
TTITLE3=HIGH TIME(YOU QUIT YOUR LOW DOWN WAYS)
TTITLE4=I'VE BEEN A LONG TIME LEAVING(BUT I'LL BE A LONG TIME GONE)
TTITLE5=LET'S ALL HELP THE COWBOYS(SING THE BLUES)
TTITLE6=THE DOOR IS ALWAYS OPEN
TTITLE7=LET'S TURN BACK THE YEARS
TTITLE8=SHE'S LOOKING GOOD
TTITLE9=DREAMING MY DREAMS WITH YOU
TTITLE10=BOB WILLS IS STILL THE KING
EXTD=
EXTT0=
EXTT1=
EXTT2=
EXTT3=
EXTT4=
EXTT5=
EXTT6=
EXTT7=
EXTT8=
EXTT9=
EXTT10=
PLAYORDER=
